<svg version="1.1" id="Layer_1" xmlns="http://www.w3.org/2000/svg" xmlns:xlink="http://www.w3.org/1999/xlink" x="0px" y="0px" width="60px" height="20px" viewBox="0 0 60 20" enable-background="new 0 0 60 20" xml:space="preserve">
<path fill="#D91F26" d="M59.7,0.3l-6.3,2.3v2.5L57,3.9v11.8h3V0.3H59.7z"/>
<path fill="#636571" d="M8.4,4.9h2.4v10.9H8.4V4.9z M10.8,3H8.4V0.5h2.4V3z M4.3,3.7v1.1h2.5v1.8H4.3v9.1H1.9V6.7H0V4.9h1.9V3.6
	c0-2.3,1.1-3.5,3.3-3.5c0.7,0,1.3,0.1,1.8,0.3L6.7,2.2C6.3,2.1,6,2.1,5.7,2.1C4.6,2.1,4.3,2.5,4.3,3.7L4.3,3.7z"/>
<path fill="#636571" d="M20.4,10c0-2.1-1.2-3.5-2.9-3.5c-1.8,0-2.8,1.4-2.8,3.5c0,2.1,1.1,3.5,2.8,3.5C19.2,13.6,20.4,12.1,20.4,10
	L20.4,10z M22.6,4.9v10.5c0,3-2.1,4.6-5.1,4.6c-1.7,0-3.4-0.5-5-1.6l1.2-1.7c1.5,0.9,2.5,1.3,3.9,1.3c1.6,0,2.8-0.8,2.8-2.8V14
	c-0.7,1-1.7,1.6-3.3,1.6c-2.8,0-4.7-2.3-4.7-5.5c0-3.2,2-5.5,4.7-5.5c1.6,0,2.7,0.7,3.4,1.7V4.9H22.6z"/>
<path fill="#636571" d="M33.9,4.9v10.9h-2.2v-1.2c-0.6,1-1.7,1.6-3.2,1.6c-2.7,0-3.9-1.5-3.9-3.5V4.9H27V12c0,1.3,0.7,2.1,2,2.1
	c1.4,0,2.5-0.8,2.5-2.6V4.9H33.9z"/>
<path fill="#636571" d="M42.6,5.1l-0.4,2c-0.6-0.2-1-0.2-1.4-0.2c-1.5,0-2.4,1.2-2.4,3.3v5.6H36V4.9h2.2v1.6
	c0.5-1.1,1.4-1.8,2.7-1.8C41.5,4.7,42,4.9,42.6,5.1"/>
<path fill="#636571" d="M44.7,9.1h5.6c-0.1-1.7-1-2.7-2.7-2.7C46,6.4,45,7.5,44.7,9.1L44.7,9.1z M52.7,13.9c-1.6,1.7-3,2.2-4.8,2.2
	c-3.4,0-5.5-2.3-5.5-5.7c0-3.4,2-5.9,5.3-5.9c3.2,0,5,2.1,5,5.4c0,0.3,0,0.8,0,1h-7.9c0.2,1.8,1.2,3.2,3.3,3.2
	c1.3,0,2.1-0.5,3.4-1.6L52.7,13.9z"/>
</svg>
